<svg width="894" height="271" viewBox="0 0 894 271" fill="none" xmlns="http://www.w3.org/2000/svg">
<path d="M397.431 74.6176C370.686 30.7581 321.915 26.0588 283.37 40.9398C236.172 56.6039 226.732 85.5825 227.519 115.344L227.528 115.687C228.312 145.401 229.321 183.625 288.876 220.294C348.66 257.105 376.927 225.861 402.938 183.483C428.897 141.19 424.177 118.477 397.431 74.6176Z" fill="#8CFFBF"/>
<path fill-rule="evenodd" clip-rule="evenodd" d="M324.369 256.737C390.952 256.737 444.928 202.457 444.928 135.5C444.928 68.5427 390.952 14.2632 324.369 14.2632C257.786 14.2632 203.809 68.5427 203.809 135.5C203.809 202.457 257.786 256.737 324.369 256.737ZM324.369 271C398.785 271 459.112 210.335 459.112 135.5C459.112 60.6654 398.785 0 324.369 0C249.952 0 189.626 60.6654 189.626 135.5C189.626 210.335 249.952 271 324.369 271Z" fill="#333333"/>
<path d="M514.3 13.0331H475.479V112.575H489.699V82.4279H514.3C540.181 82.4279 555.823 69.3453 555.823 47.7305C555.823 26.1158 540.181 13.0331 514.3 13.0331ZM513.873 70.0563H489.699V25.4047H513.873C532.075 25.4047 541.603 33.5103 541.603 47.7305C541.603 61.9508 532.075 70.0563 513.873 70.0563Z" fill="#333333"/>
<path d="M576.714 112.575H590.935V13.0331H576.714V112.575Z" fill="#333333"/>
<path d="M665.245 113.712C680.746 113.712 694.113 108.309 703.214 98.0702L693.97 89.1115C686.291 97.217 676.906 101.056 665.957 101.056C643.489 101.056 626.851 84.8454 626.851 62.804C626.851 40.7626 643.489 24.5515 665.957 24.5515C676.906 24.5515 686.291 28.2488 693.97 36.3543L703.214 27.3956C694.113 17.157 680.746 11.8955 665.388 11.8955C635.099 11.8955 612.631 33.3681 612.631 62.804C612.631 92.2399 635.099 113.712 665.245 113.712Z" fill="#333333"/>
<path d="M795.511 112.575H810.442L765.222 13.0331H751.144L706.065 112.575H720.712L731.662 87.6894H784.561L795.511 112.575ZM736.639 76.3132L758.111 27.5378L779.584 76.3132H736.639Z" fill="#333333"/>
<path d="M825.291 112.575H893.406V100.203H839.511V13.0331H825.291V112.575Z" fill="#333333"/>
<path d="M34.5085 112.575H48.5865V25.4048H82.7151V13.0332H0.379883V25.4048H34.5085V112.575Z" fill="#333333"/>
<path d="M180.254 112.575L156.648 79.1574C170.584 74.1803 178.547 63.0885 178.547 47.7306C178.547 26.1158 162.905 13.0332 137.024 13.0332H98.203V112.575H112.423V82.2858H137.024C139.157 82.2858 141.29 82.1436 143.281 82.0014L164.754 112.575H180.254ZM136.598 70.1986H112.423V25.4048H136.598C154.8 25.4048 164.327 33.5104 164.327 47.7306C164.327 61.9509 154.8 70.1986 136.598 70.1986Z" fill="#333333"/>
<path fill-rule="evenodd" clip-rule="evenodd" d="M134.028 166.444V241.411H147.841V166.444H177.192V154.098H104.677V166.444H134.028Z" fill="#333333"/>
<path fill-rule="evenodd" clip-rule="evenodd" d="M504.073 203.782L536.499 241.411H553.009L513.448 193.513L550.861 154.098H534.572L489.314 200.666V154.098H475.379V241.411H489.314V218.772L504.073 203.782Z" fill="#333333"/>
<path fill-rule="evenodd" clip-rule="evenodd" d="M627.109 229.065H577.213V203.132H620.139V191.031H577.213V166.444H625.397V154.098H563.277V241.411H627.109V229.065Z" fill="#333333"/>
<path fill-rule="evenodd" clip-rule="evenodd" d="M720.532 154.098H706.597V216.367L656.495 154.098H645.205V241.411H659.141V179.141L709.243 241.411H720.532V154.098Z" fill="#333333"/>
<path d="M772.33 165.221C779.755 165.221 788.032 167.379 795.351 172.058L796.21 172.607L800.897 161.244L800.33 160.853C793.06 155.839 782.484 153.12 772.33 153.12C760.944 153.12 752.536 155.966 746.959 160.593C741.369 165.231 738.702 171.593 738.702 178.432C738.702 186.667 742.083 192.053 747.153 195.766C752.161 199.433 758.791 201.448 765.272 203.091C766.651 203.441 768.023 203.774 769.372 204.101C774.433 205.329 779.188 206.483 782.954 208.187C785.322 209.259 787.22 210.516 788.524 212.082C789.812 213.628 790.554 215.515 790.554 217.933C790.554 221.387 789.099 224.424 785.894 226.632C782.651 228.866 777.557 230.287 770.251 230.287C759.427 230.287 748.756 226.19 742.573 220.602L741.722 219.832L736.437 230.973L736.895 231.399C743.946 237.946 757.019 242.389 770.251 242.389C781.697 242.389 790.193 239.543 795.845 234.936C801.511 230.317 804.246 223.986 804.246 217.199C804.246 209.052 800.86 203.726 795.791 200.056C790.783 196.43 784.154 194.435 777.675 192.8C776.334 192.461 775.001 192.138 773.688 191.821C768.586 190.585 763.788 189.423 759.994 187.702C757.626 186.628 755.728 185.367 754.424 183.799C753.136 182.25 752.393 180.361 752.393 177.943C752.393 174.477 753.828 171.343 756.98 169.048C760.161 166.73 765.158 165.221 772.33 165.221Z" fill="#333333"/>
<path d="M752.957 137.771L893.62 135.5L752.957 133.229L141.043 133.229L0.379883 135.5L141.043 137.771L752.957 137.771Z" fill="#333333"/>
</svg>
